<svg width="135" height="21" viewBox="0 0 135 21" fill="none" xmlns="http://www.w3.org/2000/svg">
<path d="M1.56766 14.0755C1.4238 14.0755 1.3123 14.036 1.23318 13.9568C1.16124 13.8705 1.12528 13.7554 1.12528 13.6116V6.8463C1.12528 6.69524 1.16484 6.58375 1.24397 6.51181C1.32309 6.43269 1.43459 6.39312 1.57845 6.39312H4.13566C4.9485 6.39312 5.57431 6.59454 6.0131 6.99736C6.45189 7.39299 6.67128 7.95406 6.67128 8.68058C6.67128 9.39991 6.45189 9.96098 6.0131 10.3638C5.57431 10.7666 4.9485 10.968 4.13566 10.968H2.01005V13.6116C2.01005 13.7554 1.97408 13.8705 1.90215 13.9568C1.83022 14.036 1.71872 14.0755 1.56766 14.0755ZM2.01005 10.2235H4.02776C4.61041 10.2235 5.0492 10.0941 5.34413 9.8351C5.64624 9.56895 5.7973 9.18411 5.7973 8.68058C5.7973 8.16986 5.64624 7.78502 5.34413 7.52606C5.0492 7.25991 4.61041 7.12684 4.02776 7.12684H2.01005V10.2235ZM9.77178 14.0971C9.26106 14.0971 8.81867 13.9856 8.44462 13.7626C8.07057 13.5396 7.77924 13.2267 7.57064 12.8239C7.36923 12.4139 7.26852 11.9319 7.26852 11.3781C7.26852 10.9608 7.32607 10.5868 7.44116 10.2559C7.55625 9.91782 7.72529 9.63009 7.94828 9.39272C8.17128 9.15534 8.43383 8.97551 8.73595 8.85322C9.04526 8.72374 9.39053 8.659 9.77178 8.659C10.2825 8.659 10.7249 8.7705 11.0989 8.99349C11.473 9.21648 11.7607 9.53298 11.9621 9.943C12.1707 10.3458 12.275 10.8242 12.275 11.3781C12.275 11.7953 12.2175 12.1693 12.1024 12.5002C11.9873 12.8311 11.8183 13.1188 11.5953 13.3634C11.3723 13.6008 11.1061 13.7842 10.7968 13.9137C10.4947 14.036 10.153 14.0971 9.77178 14.0971ZM9.77178 13.3958C10.0955 13.3958 10.3796 13.3166 10.6242 13.1584C10.8687 13.0001 11.0558 12.77 11.1853 12.4678C11.3219 12.1657 11.3903 11.8025 11.3903 11.3781C11.3903 10.7235 11.2428 10.2235 10.9479 9.87826C10.6601 9.53298 10.2681 9.36035 9.77178 9.36035C9.44089 9.36035 9.15316 9.43947 8.90859 9.59772C8.67121 9.74878 8.48418 9.97537 8.34751 10.2775C8.21803 10.5724 8.15329 10.9393 8.15329 11.3781C8.15329 12.0254 8.30075 12.5254 8.59568 12.8779C8.8906 13.2231 9.28264 13.3958 9.77178 13.3958ZM15.3267 14.0755C15.2044 14.0755 15.0965 14.0432 15.003 13.9784C14.9095 13.9137 14.834 13.8094 14.7764 13.6655L13.1687 9.29561C13.1256 9.17332 13.1112 9.06542 13.1256 8.97191C13.1472 8.8784 13.1939 8.80646 13.2658 8.75611C13.3378 8.70576 13.4277 8.68058 13.5356 8.68058C13.6435 8.68058 13.7298 8.70576 13.7946 8.75611C13.8665 8.80646 13.924 8.89998 13.9672 9.03665L15.4778 13.3526H15.2188L16.7726 9.03665C16.8229 8.90717 16.8841 8.81725 16.956 8.7669C17.0351 8.70935 17.1358 8.68058 17.2581 8.68058C17.3732 8.68058 17.4703 8.70935 17.5494 8.7669C17.6286 8.82445 17.6897 8.91436 17.7329 9.03665L19.2542 13.3526H19.0061L20.5382 9.01507C20.5886 8.88559 20.6497 8.79927 20.7217 8.75611C20.7936 8.70576 20.8799 8.68058 20.9806 8.68058C21.0957 8.68058 21.182 8.70935 21.2396 8.7669C21.3043 8.82445 21.3403 8.89998 21.3475 8.99349C21.3547 9.087 21.3367 9.18771 21.2935 9.29561L19.6858 13.6655C19.6355 13.8022 19.56 13.9065 19.4592 13.9784C19.3657 14.0432 19.2578 14.0755 19.1355 14.0755C19.0133 14.0755 18.9054 14.0432 18.8119 13.9784C18.7183 13.9065 18.6464 13.8022 18.5961 13.6655L16.9992 9.28482H17.4631L15.877 13.6655C15.8266 13.8022 15.7547 13.9065 15.6612 13.9784C15.5677 14.0432 15.4562 14.0755 15.3267 14.0755ZM24.8756 14.0971C24.3217 14.0971 23.8434 13.9892 23.4405 13.7734C23.0449 13.5504 22.7356 13.2375 22.5126 12.8347C22.2968 12.4319 22.1889 11.9499 22.1889 11.3888C22.1889 10.8422 22.2968 10.3674 22.5126 9.96458C22.7284 9.55456 23.0233 9.23446 23.3974 9.00428C23.7786 8.77409 24.2174 8.659 24.7138 8.659C25.0662 8.659 25.3827 8.72014 25.6633 8.84243C25.9438 8.95752 26.1812 9.12656 26.3754 9.34956C26.5768 9.57255 26.7279 9.84229 26.8286 10.1588C26.9365 10.4753 26.9904 10.8314 26.9904 11.227C26.9904 11.3421 26.9581 11.4284 26.8933 11.486C26.8286 11.5363 26.7351 11.5615 26.6128 11.5615H22.8579V10.9896H26.4078L26.2351 11.1299C26.2351 10.7415 26.1776 10.4142 26.0625 10.148C25.9474 9.87466 25.7784 9.66606 25.5554 9.52219C25.3396 9.37833 25.0662 9.3064 24.7353 9.3064C24.3685 9.3064 24.0556 9.39271 23.7966 9.56535C23.5449 9.7308 23.3542 9.96458 23.2248 10.2667C23.0953 10.5616 23.0305 10.9069 23.0305 11.3025V11.3673C23.0305 12.029 23.1888 12.5326 23.5053 12.8779C23.829 13.2231 24.2858 13.3958 24.8756 13.3958C25.1202 13.3958 25.3612 13.3634 25.5985 13.2987C25.8431 13.2339 26.0805 13.126 26.3107 12.975C26.4114 12.9102 26.5013 12.8814 26.5804 12.8886C26.6667 12.8886 26.7351 12.9138 26.7854 12.9642C26.8358 13.0073 26.8681 13.0649 26.8825 13.1368C26.9041 13.2015 26.8969 13.2735 26.8609 13.3526C26.8322 13.4317 26.771 13.5001 26.6775 13.5576C26.4401 13.7303 26.1596 13.8633 25.8359 13.9568C25.5122 14.0504 25.1921 14.0971 24.8756 14.0971ZM28.6977 14.0755C28.5538 14.0755 28.4423 14.036 28.3632 13.9568C28.2913 13.8777 28.2553 13.7662 28.2553 13.6224V9.12297C28.2553 8.9791 28.2913 8.8712 28.3632 8.79927C28.4351 8.72014 28.5394 8.68058 28.6761 8.68058C28.8128 8.68058 28.9171 8.72014 28.989 8.79927C29.0681 8.8712 29.1077 8.9791 29.1077 9.12297V9.99695H28.9998C29.1149 9.57255 29.3343 9.24525 29.658 9.01507C29.9817 8.78488 30.3809 8.6626 30.8557 8.64821C30.9636 8.64102 31.0499 8.6662 31.1146 8.72374C31.1793 8.77409 31.2153 8.86401 31.2225 8.99349C31.2297 9.11577 31.2009 9.21288 31.1362 9.28482C31.0714 9.35675 30.9707 9.39991 30.8341 9.41429L30.6614 9.43587C30.1723 9.47903 29.7946 9.63729 29.5285 9.91063C29.2695 10.1768 29.1401 10.5436 29.1401 11.0112V13.6224C29.1401 13.7662 29.1005 13.8777 29.0214 13.9568C28.9494 14.036 28.8415 14.0755 28.6977 14.0755ZM34.4221 14.0971C33.8683 14.0971 33.3899 13.9892 32.9871 13.7734C32.5914 13.5504 32.2821 13.2375 32.0591 12.8347C31.8433 12.4319 31.7354 11.9499 31.7354 11.3888C31.7354 10.8422 31.8433 10.3674 32.0591 9.96458C32.2749 9.55456 32.5699 9.23446 32.9439 9.00428C33.3252 8.77409 33.7639 8.659 34.2603 8.659C34.6128 8.659 34.9293 8.72014 35.2098 8.84243C35.4903 8.95752 35.7277 9.12656 35.9219 9.34956C36.1233 9.57255 36.2744 9.84229 36.3751 10.1588C36.483 10.4753 36.537 10.8314 36.537 11.227C36.537 11.3421 36.5046 11.4284 36.4398 11.486C36.3751 11.5363 36.2816 11.5615 36.1593 11.5615H32.4044V10.9896H35.9543L35.7817 11.1299C35.7817 10.7415 35.7241 10.4142 35.609 10.148C35.4939 9.87466 35.3249 9.66606 35.1019 9.52219C34.8861 9.37833 34.6128 9.3064 34.2819 9.3064C33.915 9.3064 33.6021 9.39271 33.3431 9.56535C33.0914 9.7308 32.9008 9.96458 32.7713 10.2667C32.6418 10.5616 32.5771 10.9069 32.5771 11.3025V11.3673C32.5771 12.029 32.7353 12.5326 33.0518 12.8779C33.3755 13.2231 33.8323 13.3958 34.4221 13.3958C34.6667 13.3958 34.9077 13.3634 35.1451 13.2987C35.3896 13.2339 35.627 13.126 35.8572 12.975C35.9579 12.9102 36.0478 12.8814 36.1269 12.8886C36.2133 12.8886 36.2816 12.9138 36.3319 12.9642C36.3823 13.0073 36.4147 13.0649 36.4291 13.1368C36.4506 13.2015 36.4434 13.2735 36.4075 13.3526C36.3787 13.4317 36.3176 13.5001 36.224 13.5576C35.9867 13.7303 35.7061 13.8633 35.3824 13.9568C35.0587 14.0504 34.7386 14.0971 34.4221 14.0971ZM39.7979 14.0971C39.3304 14.0971 38.9204 13.9856 38.5679 13.7626C38.2226 13.5396 37.9529 13.2267 37.7587 12.8239C37.5716 12.4139 37.4781 11.9319 37.4781 11.3781C37.4781 10.817 37.5716 10.335 37.7587 9.93221C37.9529 9.52219 38.2226 9.20929 38.5679 8.99349C38.9204 8.7705 39.3304 8.659 39.7979 8.659C40.2727 8.659 40.6791 8.77769 41.0172 9.01507C41.3553 9.25245 41.5819 9.57255 41.697 9.97537H41.5783V6.75998C41.5783 6.61612 41.6142 6.50822 41.6862 6.43628C41.7653 6.35716 41.8768 6.3176 42.0207 6.3176C42.1573 6.3176 42.2616 6.35716 42.3336 6.43628C42.4127 6.50822 42.4523 6.61612 42.4523 6.75998V13.6224C42.4523 13.7662 42.4163 13.8777 42.3444 13.9568C42.2724 14.036 42.1645 14.0755 42.0207 14.0755C41.884 14.0755 41.7761 14.036 41.697 13.9568C41.625 13.8777 41.5891 13.7662 41.5891 13.6224V12.5973L41.7078 12.7484C41.5927 13.1584 41.3625 13.4857 41.0172 13.7303C40.6791 13.9748 40.2727 14.0971 39.7979 14.0971ZM39.9814 13.3958C40.3051 13.3958 40.5892 13.3166 40.8338 13.1584C41.0783 13.0001 41.2654 12.77 41.3948 12.4678C41.5315 12.1657 41.5999 11.8025 41.5999 11.3781C41.5999 10.7235 41.4524 10.2235 41.1575 9.87826C40.8697 9.53298 40.4777 9.36035 39.9814 9.36035C39.6505 9.36035 39.3628 9.43947 39.1182 9.59772C38.8808 9.74878 38.6938 9.97537 38.5571 10.2775C38.4276 10.5724 38.3629 10.9393 38.3629 11.3781C38.3629 12.0254 38.5103 12.5254 38.8053 12.8779C39.1002 13.2231 39.4922 13.3958 39.9814 13.3958ZM49.5285 14.0971C49.0537 14.0971 48.6437 13.9748 48.2984 13.7303C47.9604 13.4857 47.7338 13.1584 47.6187 12.7484L47.7374 12.6297V13.6224C47.7374 13.7662 47.6978 13.8777 47.6187 13.9568C47.5467 14.036 47.4424 14.0755 47.3058 14.0755C47.1619 14.0755 47.054 14.036 46.9821 13.9568C46.9101 13.8777 46.8742 13.7662 46.8742 13.6224V6.75998C46.8742 6.61612 46.9101 6.50822 46.9821 6.43628C47.054 6.35716 47.1619 6.3176 47.3058 6.3176C47.4424 6.3176 47.5503 6.35716 47.6295 6.43628C47.7086 6.50822 47.7482 6.61612 47.7482 6.75998V9.97537H47.6187C47.741 9.57255 47.9712 9.25245 48.3092 9.01507C48.6473 8.77769 49.0537 8.659 49.5285 8.659C50.0032 8.659 50.4133 8.7705 50.7585 8.99349C51.1038 9.20929 51.37 9.52219 51.557 9.93221C51.7512 10.335 51.8483 10.817 51.8483 11.3781C51.8483 11.9319 51.7512 12.4139 51.557 12.8239C51.37 13.2267 51.1002 13.5396 50.7478 13.7626C50.4025 13.9856 49.9961 14.0971 49.5285 14.0971ZM49.3451 13.3958C49.676 13.3958 49.9601 13.3166 50.1975 13.1584C50.442 13.0001 50.6291 12.77 50.7585 12.4678C50.8952 12.1657 50.9635 11.8025 50.9635 11.3781C50.9635 10.7235 50.8161 10.2235 50.5212 9.87826C50.2334 9.53298 49.8414 9.36035 49.3451 9.36035C49.0214 9.36035 48.7372 9.43947 48.4927 9.59772C48.2481 9.74878 48.0575 9.97537 47.9208 10.2775C47.7913 10.5724 47.7266 10.9393 47.7266 11.3781C47.7266 12.0254 47.874 12.5254 48.169 12.8779C48.4639 13.2231 48.8559 13.3958 49.3451 13.3958ZM54.2563 16.0177C54.1484 16.0177 54.0621 15.9889 53.9974 15.9314C53.9326 15.8738 53.8931 15.7947 53.8787 15.694C53.8715 15.6005 53.8895 15.5034 53.9326 15.4027L54.6771 13.7303V14.1079L52.6055 9.29561C52.5623 9.18771 52.5479 9.087 52.5623 8.99349C52.5767 8.89998 52.6199 8.82445 52.6918 8.7669C52.7637 8.70935 52.8644 8.68058 52.9939 8.68058C53.109 8.68058 53.1989 8.70576 53.2636 8.75611C53.3284 8.80646 53.3859 8.89638 53.4363 9.02586L55.2058 13.3634H54.9145L56.7056 9.02586C56.7632 8.89638 56.8243 8.80646 56.8891 8.75611C56.9538 8.70576 57.0473 8.68058 57.1696 8.68058C57.2847 8.68058 57.371 8.70935 57.4285 8.7669C57.4933 8.82445 57.5293 8.89998 57.5364 8.99349C57.5508 9.07981 57.5364 9.17692 57.4933 9.28482L54.7311 15.6724C54.6735 15.8019 54.6088 15.8918 54.5369 15.9422C54.4721 15.9925 54.3786 16.0177 54.2563 16.0177Z" fill="#9A9A9A"/>
<path d="M90.7445 6.96678V14.8051C90.7431 15.0553 90.6431 15.2949 90.466 15.4718C90.289 15.6488 90.0493 15.7488 89.7989 15.7502C89.6745 15.7509 89.5512 15.7269 89.4362 15.6796C89.3212 15.6324 89.2166 15.5628 89.1287 15.4749C89.0408 15.387 88.9711 15.2826 88.9238 15.1676C88.8766 15.0526 88.8526 14.9294 88.8533 14.8051V6.96678C88.8526 6.84248 88.8766 6.71928 88.9238 6.60431C88.9711 6.48934 89.0408 6.38489 89.1287 6.297C89.2166 6.20911 89.3212 6.13952 89.4362 6.09228C89.5512 6.04503 89.6745 6.02107 89.7989 6.02176C90.0493 6.02314 90.289 6.12315 90.466 6.30007C90.6431 6.477 90.7431 6.71657 90.7445 6.96678ZM111.159 7.91179C111.41 7.91179 111.651 7.81223 111.828 7.635C112.005 7.45778 112.105 7.21741 112.105 6.96678C112.105 6.71614 112.005 6.47577 111.828 6.29855C111.651 6.12132 111.41 6.02176 111.159 6.02176H106.704C106.579 6.01967 106.454 6.04257 106.338 6.08912C106.221 6.13568 106.115 6.20496 106.026 6.29292C105.936 6.38088 105.865 6.48577 105.816 6.60146C105.768 6.71715 105.743 6.84134 105.743 6.96678V14.8051C105.743 15.0558 105.843 15.2961 106.02 15.4734C106.197 15.6506 106.438 15.7502 106.689 15.7502C106.939 15.7502 107.18 15.6506 107.357 15.4734C107.535 15.2961 107.634 15.0558 107.634 14.8051V12.2326H110.597C110.823 12.2326 111.039 12.143 111.199 11.9835C111.359 11.824 111.448 11.6077 111.448 11.3821C111.448 11.1565 111.359 10.9402 111.199 10.7807C111.039 10.6212 110.823 10.5316 110.597 10.5316H107.655V7.90654L111.159 7.91179ZM115.462 14.0439C115.392 14.0439 115.325 14.0162 115.276 13.967C115.227 13.9178 115.199 13.851 115.199 13.7814V6.19501C115.198 5.94481 115.098 5.70524 114.921 5.52831C114.744 5.35139 114.504 5.25138 114.254 5.25C114.003 5.25138 113.763 5.35139 113.586 5.52831C113.409 5.70524 113.309 5.94481 113.308 6.19501V14.0701C113.31 14.2928 113.356 14.5129 113.443 14.7179C113.53 14.9228 113.657 15.1086 113.816 15.2646C113.975 15.4206 114.163 15.5438 114.37 15.6271C114.577 15.7104 114.798 15.7522 115.021 15.7502H115.499C115.625 15.7503 115.751 15.722 115.865 15.6675C115.98 15.613 116.081 15.5336 116.161 15.4351C116.241 15.3376 116.298 15.2233 116.328 15.1006C116.358 14.9778 116.36 14.85 116.334 14.7264C116.288 14.5302 116.177 14.3556 116.018 14.2314C115.86 14.1072 115.663 14.0411 115.462 14.0439ZM101.115 10.2481V11.5186C101.115 12.0743 101.005 12.6245 100.792 13.1379C100.58 13.6513 100.268 14.1178 99.8746 14.5108C99.4814 14.9037 99.0146 15.2154 98.5009 15.428C97.9872 15.6407 97.4365 15.7502 96.8805 15.7502H93.9701C93.7197 15.7488 93.48 15.6488 93.303 15.4718C93.1259 15.2949 93.0259 15.0553 93.0245 14.8051V6.96678C93.0259 6.71657 93.1259 6.477 93.303 6.30007C93.48 6.12315 93.7197 6.02314 93.9701 6.02176H96.8805C97.4363 6.02107 97.9868 6.12988 98.5005 6.34196C99.0142 6.55405 99.481 6.86524 99.8742 7.25776C100.267 7.65028 100.579 8.11642 100.792 8.62952C101.005 9.14262 101.115 9.69262 101.115 10.2481ZM99.2183 10.3688C99.2183 9.71718 98.9592 9.09222 98.4982 8.63144C98.0371 8.17066 97.4117 7.91179 96.7597 7.91179H94.921V13.8706H96.7597C97.4117 13.8706 98.0371 13.6118 98.4982 13.151C98.9592 12.6902 99.2183 12.0652 99.2183 11.4136V10.3688ZM123.783 12.2064V12.4216C123.782 13.304 123.43 14.1498 122.806 14.7737C122.182 15.3976 121.335 15.7488 120.453 15.7502C119.566 15.7502 118.716 15.3985 118.088 14.7725C117.461 14.1464 117.108 13.2972 117.106 12.4111V12.1959C117.108 11.3093 117.461 10.4595 118.088 9.83261C118.715 9.20573 119.565 8.85294 120.453 8.85155C121.338 8.85433 122.186 9.20807 122.81 9.8351C123.435 10.4621 123.785 11.3112 123.783 12.1959V12.2064ZM121.945 12.0226C121.947 11.6234 121.792 11.2393 121.513 10.954C121.233 10.6688 120.852 10.5056 120.453 10.5001C120.255 10.5001 120.058 10.5391 119.876 10.6148C119.693 10.6905 119.526 10.8015 119.386 10.9414C119.246 11.0813 119.135 11.2474 119.06 11.4302C118.984 11.613 118.945 11.809 118.945 12.0068V12.6001C118.946 12.9988 119.106 13.3807 119.388 13.6622C119.671 13.9436 120.054 14.1016 120.453 14.1016C120.849 14.0975 121.227 13.9376 121.507 13.6566C121.786 13.3757 121.943 12.9961 121.945 12.6001V12.0226ZM133.266 9.45006L132.078 13.0936L130.991 9.74407C130.909 9.48696 130.747 9.26271 130.529 9.10403C130.311 8.94536 130.047 8.86057 129.777 8.86205C129.508 8.8622 129.245 8.94762 129.027 9.10606C128.809 9.2645 128.647 9.48784 128.564 9.74407L127.476 13.0936L126.294 9.45006C126.239 9.27839 126.13 9.12888 125.983 9.02318C125.837 8.91747 125.661 8.86104 125.48 8.86205C125.346 8.86078 125.214 8.89157 125.094 8.95185C124.974 9.01212 124.871 9.10014 124.792 9.20856C124.71 9.31623 124.654 9.44195 124.631 9.57528C124.607 9.7086 124.615 9.84566 124.655 9.97507L126.231 14.8734C126.314 15.1287 126.475 15.3511 126.692 15.5087C126.91 15.6663 127.171 15.7509 127.44 15.7502C127.709 15.75 127.972 15.6646 128.19 15.5061C128.408 15.3477 128.57 15.1244 128.653 14.8681L129.741 11.5133L130.828 14.8681C130.914 15.13 131.082 15.3572 131.307 15.5161C131.532 15.675 131.803 15.7571 132.078 15.7502C132.349 15.7503 132.612 15.6651 132.831 15.5067C133.05 15.3483 133.213 15.1248 133.297 14.8681L134.899 9.97507C134.94 9.84671 134.951 9.7106 134.93 9.57754C134.909 9.44448 134.857 9.31814 134.779 9.20856C134.699 9.10108 134.595 9.01374 134.476 8.95357C134.356 8.89339 134.224 8.86205 134.09 8.86205C133.908 8.85794 133.729 8.913 133.58 9.01899C133.431 9.12497 133.321 9.2762 133.266 9.45006Z" fill="#8B8B8B"/>
<path d="M103.437 11.3766C103.921 11.3766 104.314 10.984 104.314 10.4998C104.314 10.0156 103.921 9.62305 103.437 9.62305C102.952 9.62305 102.559 10.0156 102.559 10.4998C102.559 10.984 102.952 11.3766 103.437 11.3766Z" fill="#8B8B8B"/>
<path d="M80.4216 0H66.9729C65.9706 0.00277092 65.0101 0.401915 64.3013 1.11021C63.5926 1.81851 63.1932 2.77837 63.1904 3.78006V17.2203C63.1932 18.2219 63.5926 19.1818 64.3013 19.8901C65.0101 20.5984 65.9706 20.9975 66.9729 21.0003H80.4216C81.4239 20.9975 82.3844 20.5984 83.0931 19.8901C83.8019 19.1818 84.2013 18.2219 84.2041 17.2203V3.78006C84.2013 2.77837 83.8019 1.81851 83.0931 1.11021C82.3844 0.401915 81.4239 0.00277092 80.4216 0V0Z" fill="#8B8B8B"/>
<path d="M80.8415 10.5001C80.8387 11.9474 80.2622 13.3346 79.2382 14.3579C78.2142 15.3813 76.8261 15.9574 75.378 15.9602H73.6969C73.1396 15.9602 72.6051 15.7389 72.211 15.3451C71.8169 14.9513 71.5955 14.4171 71.5955 13.8602C71.5955 13.3032 71.8169 12.7691 72.211 12.3752C72.6051 11.9814 73.1396 11.7601 73.6969 11.7601H75.378C75.7124 11.7601 76.0331 11.6274 76.2695 11.3911C76.506 11.1548 76.6388 10.8343 76.6388 10.5001C76.6388 10.1659 76.506 9.84545 76.2695 9.60915C76.0331 9.37285 75.7124 9.2401 75.378 9.2401H73.6969C72.561 9.24084 71.4651 9.65947 70.6184 10.4161C70.5388 10.4835 70.4389 10.5223 70.3347 10.5264C70.2501 10.5248 70.1679 10.4981 70.0986 10.4496C70.0292 10.4012 69.9759 10.3331 69.9455 10.2542C69.915 10.1753 69.9088 10.0892 69.9276 10.0067C69.9464 9.92426 69.9894 9.84928 70.051 9.79136C71.0535 8.89486 72.3516 8.39947 73.6969 8.40009H75.378C75.9353 8.40009 76.4698 8.62134 76.8639 9.01517C77.2579 9.40901 77.4793 9.94316 77.4793 10.5001C77.4793 11.0571 77.2579 11.5912 76.8639 11.9851C76.4698 12.3789 75.9353 12.6002 75.378 12.6002H73.6969C73.3625 12.6002 73.0418 12.7329 72.8053 12.9692C72.5689 13.2055 72.4361 13.526 72.4361 13.8602C72.4361 14.1943 72.5689 14.5148 72.8053 14.7511C73.0418 14.9874 73.3625 15.1202 73.6969 15.1202H75.378C75.9851 15.1202 76.5862 15.0007 77.1471 14.7685C77.708 14.5363 78.2176 14.196 78.6469 13.767C79.0762 13.338 79.4167 12.8287 79.6491 12.2681C79.8814 11.7076 80.001 11.1068 80.001 10.5001C80.001 9.8934 79.8814 9.29263 79.6491 8.7321C79.4167 8.17156 79.0762 7.66225 78.6469 7.23324C78.2176 6.80422 77.708 6.46391 77.1471 6.23173C76.5862 5.99955 75.9851 5.88005 75.378 5.88005H73.6969C73.5311 5.87936 73.3668 5.91147 73.2136 5.97455C73.0603 6.03763 72.921 6.13041 72.8038 6.24755C72.6866 6.3647 72.5937 6.50387 72.5306 6.65706C72.4675 6.81025 72.4354 6.97441 72.4361 7.14007V7.35007C72.4361 7.46147 72.3918 7.5683 72.313 7.64706C72.2342 7.72583 72.1273 7.77008 72.0158 7.77008C71.9043 7.77008 71.7974 7.72583 71.7186 7.64706C71.6398 7.5683 71.5955 7.46147 71.5955 7.35007V7.14007C71.5955 6.58311 71.8169 6.04896 72.211 5.65512C72.6051 5.26129 73.1396 5.04004 73.6969 5.04004H75.378C76.8261 5.04281 78.2142 5.61896 79.2382 6.64232C80.2622 7.66569 80.8387 9.05287 80.8415 10.5001ZM73.6969 10.9201C73.8083 10.9201 73.9152 10.8759 73.9941 10.7971C74.0729 10.7183 74.1172 10.6115 74.1172 10.5001C74.1172 10.3887 74.0729 10.2819 73.9941 10.2031C73.9152 10.1244 73.8083 10.0801 73.6969 10.0801C72.6937 10.0801 71.7316 10.4784 71.0223 11.1873C70.3129 11.8962 69.9144 12.8576 69.9144 13.8602C69.9144 14.1934 69.7823 14.5131 69.547 14.7493C69.3117 14.9854 68.9923 15.1188 68.6589 15.1202C68.5474 15.1202 68.4405 15.1644 68.3617 15.2432C68.2829 15.322 68.2386 15.4288 68.2386 15.5402C68.2386 15.6516 68.2829 15.7584 68.3617 15.8372C68.4405 15.916 68.5474 15.9602 68.6589 15.9602C69.2162 15.9602 69.7507 15.7389 70.1448 15.3451C70.5388 14.9513 70.7602 14.4171 70.7602 13.8602C70.7602 13.0813 71.0695 12.3343 71.62 11.7831C72.1706 11.2319 72.9175 10.9215 73.6969 10.9201ZM67.3928 13.8602V7.14007C67.3928 6.80589 67.5256 6.4854 67.7621 6.2491C67.9985 6.0128 68.3192 5.88005 68.6536 5.88005C68.988 5.88005 69.3087 6.0128 69.5451 6.2491C69.7816 6.4854 69.9144 6.80589 69.9144 7.14007V8.03783C69.9144 8.14923 69.9587 8.25606 70.0375 8.33482C70.1163 8.41359 70.2232 8.45784 70.3347 8.45784C70.4462 8.45784 70.5531 8.41359 70.6319 8.33482C70.7107 8.25606 70.755 8.14923 70.755 8.03783V7.14007C70.755 6.58311 70.5336 6.04896 70.1395 5.65512C69.7454 5.26129 69.2109 5.04004 68.6536 5.04004C68.0963 5.04004 67.5618 5.26129 67.1677 5.65512C66.7736 6.04896 66.5522 6.58311 66.5522 7.14007V13.8602C66.558 14.3634 66.7445 14.8478 67.0776 15.2252C67.1174 15.2712 67.1666 15.3081 67.2219 15.3334C67.2771 15.3588 67.3372 15.372 67.398 15.3722C67.4947 15.3666 67.5869 15.3297 67.6607 15.2672C67.7452 15.1957 67.798 15.0939 67.8078 14.9837C67.8 14.8784 67.7575 14.7788 67.687 14.7002C67.4882 14.4663 67.3834 14.1669 67.3928 13.8602ZM79.0396 9.54461C78.8273 8.73265 78.3507 8.01436 77.6849 7.50296C77.0191 6.99156 76.2019 6.71612 75.3622 6.72006H73.6969C73.5854 6.72006 73.4785 6.76431 73.3997 6.84308C73.3209 6.92185 73.2766 7.02868 73.2766 7.14007C73.2766 7.25146 73.3209 7.35829 73.3997 7.43706C73.4785 7.51583 73.5854 7.56008 73.6969 7.56008H75.378C76.0293 7.56003 76.6622 7.77598 77.1775 8.17408C77.6928 8.57219 78.0613 9.12993 78.2253 9.75986C78.2487 9.85049 78.3018 9.9307 78.376 9.98777C78.4502 10.0448 78.5414 10.0755 78.6351 10.0749C78.6682 10.0799 78.7018 10.0799 78.7349 10.0749C78.7888 10.0619 78.8395 10.0379 78.8838 10.0045C78.9281 9.97107 78.965 9.9289 78.9923 9.88061C79.0229 9.83085 79.0428 9.77533 79.0509 9.71753C79.0591 9.65972 79.0552 9.60086 79.0396 9.54461ZM78.7244 11.0514C78.6717 11.0329 78.6157 11.0254 78.56 11.0296C78.5043 11.0338 78.4501 11.0494 78.4008 11.0755C78.3514 11.1017 78.308 11.1378 78.2733 11.1815C78.2386 11.2252 78.2133 11.2757 78.1991 11.3296C78.0155 11.9324 77.6482 12.4629 77.1484 12.8469C76.6384 13.2315 76.0169 13.4398 75.378 13.4402H73.6969C73.5854 13.4402 73.4785 13.4844 73.3997 13.5632C73.3209 13.6419 73.2766 13.7488 73.2766 13.8602C73.2766 13.9716 73.3209 14.0784 73.3997 14.1572C73.4785 14.2359 73.5854 14.2802 73.6969 14.2802H75.378C76.2034 14.2833 77.0068 14.0138 77.6632 13.5137C78.3081 13.0178 78.7789 12.3303 79.0081 11.5501C79.0342 11.4465 79.0193 11.3368 78.9664 11.2438C78.9136 11.1509 78.8269 11.082 78.7244 11.0514ZM68.6536 14.2802C68.7651 14.2802 68.872 14.2359 68.9508 14.1572C69.0296 14.0784 69.0739 13.9716 69.0739 13.8602V8.82009C69.0739 8.7087 69.0296 8.60187 68.9508 8.52311C68.872 8.44434 68.7651 8.40009 68.6536 8.40009C68.5421 8.40009 68.4352 8.44434 68.3564 8.52311C68.2776 8.60187 68.2333 8.7087 68.2333 8.82009V13.8602C68.2333 13.9716 68.2776 14.0784 68.3564 14.1572C68.4352 14.2359 68.5421 14.2802 68.6536 14.2802ZM68.3594 6.82507C68.3191 6.86372 68.2871 6.91021 68.2654 6.96167C68.2437 7.01313 68.2328 7.06848 68.2333 7.12432C68.236 7.23487 68.2811 7.34016 68.3594 7.41836C68.4376 7.49655 68.543 7.54166 68.6536 7.54433C68.7095 7.54484 68.7649 7.53392 68.8164 7.51225C68.8679 7.49058 68.9144 7.45862 68.9531 7.41832C68.992 7.38002 69.0228 7.33422 69.0436 7.28369C69.0644 7.23316 69.0747 7.17894 69.0739 7.12432C69.0746 7.06897 69.0642 7.01404 69.0433 6.96276C69.0225 6.91148 68.9915 6.8649 68.9524 6.82576C68.9132 6.78662 68.8666 6.75571 68.8153 6.73485C68.764 6.71399 68.709 6.70361 68.6536 6.70431C68.599 6.70353 68.5447 6.71383 68.4941 6.73458C68.4436 6.75534 68.3977 6.78612 68.3594 6.82507ZM75.6722 10.7836C75.7119 10.7445 75.7434 10.698 75.7649 10.6466C75.7865 10.5952 75.7975 10.5401 75.7975 10.4844C75.7975 10.4287 75.7865 10.3735 75.7649 10.3222C75.7434 10.2708 75.7119 10.2242 75.6722 10.1851C75.5936 10.1082 75.488 10.0651 75.378 10.0651C75.268 10.0651 75.1623 10.1082 75.0838 10.1851C75.0441 10.2242 75.0125 10.2708 74.991 10.3222C74.9695 10.3735 74.9584 10.4287 74.9584 10.4844C74.9584 10.5401 74.9695 10.5952 74.991 10.6466C75.0125 10.698 75.0441 10.7445 75.0838 10.7836C75.1623 10.8606 75.268 10.9037 75.378 10.9037C75.488 10.9037 75.5936 10.8606 75.6722 10.7836Z" fill="white"/>
</svg>
