<svg width="164" height="48" viewBox="0 0 164 48" fill="none" xmlns="http://www.w3.org/2000/svg">
<defs>
<linearGradient id="paint0_linear_1028_419" x1="24.0152" y1="44.568" x2="24.0152" y2="2.64" gradientUnits="userSpaceOnUse">
<stop stop-color="#3D29C2"/>
<stop offset="1" stop-color="#9653BB"/>
</linearGradient>
<clipPath id="clip0_1028_419">
<rect width="164" height="48" fill="white"/>
</clipPath>
</defs>
<g clip-path="url(#clip0_1028_419)">
<path d="M62.98 15.924V33.84C62.9769 34.4119 62.7481 34.9595 62.3435 35.3639C61.9388 35.7683 61.3909 35.9968 60.8186 36C60.5344 36.0016 60.2526 35.9468 59.9896 35.8388C59.7267 35.7308 59.4878 35.5718 59.2868 35.3709C59.0857 35.17 58.9266 34.9313 58.8185 34.6685C58.7105 34.4057 58.6557 34.1241 58.6573 33.84V15.924C58.6557 15.6399 58.7105 15.3583 58.8185 15.0955C58.9266 14.8327 59.0857 14.594 59.2868 14.3931C59.4878 14.1922 59.7267 14.0332 59.9896 13.9252C60.2526 13.8172 60.5344 13.7624 60.8186 13.764C61.3909 13.7672 61.9388 13.9957 62.3435 14.4001C62.7481 14.8045 62.9769 15.3521 62.98 15.924ZM109.642 18.084C110.215 18.084 110.765 17.8564 111.17 17.4514C111.575 17.0463 111.803 16.4969 111.803 15.924C111.803 15.3511 111.575 14.8017 111.17 14.3966C110.765 13.9916 110.215 13.764 109.642 13.764H99.4591C99.1723 13.7592 98.8873 13.8116 98.6209 13.918C98.3545 14.0244 98.112 14.1827 97.9075 14.3838C97.7029 14.5848 97.5405 14.8246 97.4296 15.089C97.3188 15.3534 97.2617 15.6373 97.2617 15.924V33.84C97.2617 34.4129 97.4895 34.9623 97.8948 35.3673C98.3001 35.7724 98.8499 36 99.4231 36C99.9963 36 100.546 35.7724 100.951 35.3673C101.357 34.9623 101.584 34.4129 101.584 33.84V27.96H108.357C108.873 27.96 109.367 27.7552 109.732 27.3906C110.097 27.026 110.302 26.5316 110.302 26.016C110.302 25.5004 110.097 25.006 109.732 24.6414C109.367 24.2768 108.873 24.072 108.357 24.072H101.633V18.072L109.642 18.084ZM119.476 32.1C119.317 32.1 119.164 32.0368 119.051 31.9243C118.939 31.8117 118.875 31.6591 118.875 31.5V14.16C118.872 13.5881 118.644 13.0405 118.239 12.6361C117.834 12.2317 117.286 12.0032 116.714 12C116.142 12.0032 115.594 12.2317 115.189 12.6361C114.785 13.0405 114.556 13.5881 114.553 14.16V32.16C114.557 32.669 114.662 33.1721 114.862 33.6406C115.061 34.109 115.351 34.5337 115.714 34.8902C116.078 35.2468 116.508 35.5284 116.98 35.7188C117.453 35.9092 117.958 36.0047 118.467 36H119.56C119.85 36.0003 120.136 35.9357 120.398 35.8112C120.66 35.6866 120.89 35.5051 121.073 35.28C121.257 35.0571 121.388 34.7957 121.456 34.5152C121.525 34.2348 121.529 33.9424 121.469 33.66C121.365 33.2116 121.11 32.8124 120.748 32.5286C120.385 32.2448 119.936 32.0936 119.476 32.1ZM86.683 23.424V26.328C86.683 27.5981 86.4327 28.8559 85.9463 30.0293C85.46 31.2028 84.7471 32.269 83.8484 33.1671C82.9497 34.0653 81.8828 34.7777 80.7086 35.2638C79.5344 35.7498 78.2758 36 77.0049 36H70.3527C69.7804 35.9968 69.2325 35.7683 68.8278 35.3639C68.4232 34.9595 68.1945 34.4119 68.1913 33.84V15.924C68.1945 15.3521 68.4232 14.8045 68.8278 14.4001C69.2325 13.9957 69.7804 13.7672 70.3527 13.764H77.0049C78.2753 13.7624 79.5335 14.0111 80.7076 14.4959C81.8818 14.9806 82.9488 15.6919 83.8476 16.5891C84.7465 17.4863 85.4596 18.5517 85.9461 19.7245C86.4326 20.8973 86.683 22.1544 86.683 23.424ZM82.3483 23.7C82.3483 22.2105 81.7562 20.7821 80.7024 19.7289C79.6485 18.6757 78.2191 18.084 76.7287 18.084H72.5261V31.704H76.7287C78.2191 31.704 79.6485 31.1123 80.7024 30.0591C81.7562 29.0059 82.3483 27.5775 82.3483 26.088V23.7ZM138.496 27.9V28.392C138.493 30.4088 137.69 32.3421 136.263 33.7682C134.836 35.1943 132.901 35.9968 130.883 36C128.857 36 126.913 35.1963 125.479 33.7654C124.045 32.3344 123.237 30.3932 123.234 28.368V27.876C123.237 25.8497 124.044 23.9072 125.478 22.4744C126.912 21.0415 128.855 20.2352 130.883 20.232C132.906 20.2384 134.845 21.0469 136.272 22.4801C137.699 23.9133 138.499 25.8539 138.496 27.876V27.9ZM134.293 27.48C134.3 26.5675 133.945 25.6895 133.306 25.0376C132.667 24.3856 131.796 24.0127 130.883 24C130.431 24 129.982 24.0891 129.564 24.2622C129.146 24.4352 128.766 24.6889 128.446 25.0087C128.126 25.3285 127.872 25.7082 127.699 26.126C127.526 26.5439 127.437 26.9917 127.437 27.444V28.8C127.44 29.7113 127.805 30.5842 128.45 31.2275C129.096 31.8708 129.971 32.232 130.883 32.232C131.789 32.2225 132.654 31.8572 133.292 31.2149C133.931 30.5726 134.29 29.7051 134.293 28.8V27.48ZM160.17 21.6L157.456 29.928L154.97 22.272C154.783 21.6843 154.414 21.1718 153.915 20.8091C153.416 20.4464 152.814 20.2526 152.197 20.256C151.58 20.2563 150.98 20.4516 150.482 20.8137C149.984 21.1759 149.613 21.6863 149.423 22.272L146.937 29.928L144.236 21.6C144.108 21.2076 143.859 20.8659 143.525 20.6243C143.19 20.3827 142.787 20.2537 142.374 20.256C142.068 20.2531 141.765 20.3235 141.492 20.4612C141.218 20.599 140.981 20.8002 140.801 21.048C140.614 21.2941 140.487 21.5815 140.433 21.8862C140.379 22.1909 140.398 22.5042 140.489 22.8L144.091 33.996C144.28 34.5795 144.649 35.088 145.145 35.4482C145.642 35.8084 146.24 36.0016 146.853 36C147.469 35.9997 148.069 35.8044 148.568 35.4423C149.066 35.0801 149.437 34.5697 149.627 33.984L152.113 26.316L154.598 33.984C154.794 34.5825 155.178 35.1018 155.693 35.465C156.208 35.8282 156.826 36.0158 157.456 36C158.074 36.0003 158.676 35.8056 159.176 35.4435C159.676 35.0814 160.049 34.5706 160.242 33.984L163.904 22.8C163.997 22.5066 164.021 22.1955 163.973 21.8914C163.925 21.5872 163.807 21.2985 163.628 21.048C163.446 20.8023 163.209 20.6027 162.936 20.4652C162.662 20.3276 162.361 20.256 162.055 20.256C161.638 20.2466 161.228 20.3724 160.889 20.6147C160.549 20.857 160.297 21.2026 160.17 21.6Z" fill="black"/>
<path d="M91.9904 26.0041C93.0979 26.0041 93.9956 25.1069 93.9956 24.0001C93.9956 22.8933 93.0979 21.9961 91.9904 21.9961C90.8829 21.9961 89.9851 22.8933 89.9851 24.0001C89.9851 25.1069 90.8829 26.0041 91.9904 26.0041Z" fill="black"/>
<path d="M39.385 0H8.64548C6.35451 0.00633343 4.15917 0.91865 2.5392 2.53759C0.919233 4.15654 0.00633745 6.35048 0 8.64L0 39.36C0.00633745 41.6495 0.919233 43.8435 2.5392 45.4624C4.15917 47.0814 6.35451 47.9937 8.64548 48H39.385C41.6759 47.9937 43.8713 47.0814 45.4913 45.4624C47.1112 43.8435 48.0241 41.6495 48.0305 39.36V8.64C48.0241 6.35048 47.1112 4.15654 45.4913 2.53759C43.8713 0.91865 41.6759 0.00633343 39.385 0V0Z" fill="url(#paint0_linear_1028_419)"/>
<path d="M40.3455 24C40.3392 27.308 39.0215 30.4786 36.6809 32.8177C34.3403 35.1568 31.1677 36.4737 27.8576 36.48H24.0152C22.7413 36.48 21.5197 35.9743 20.6189 35.0741C19.7182 34.174 19.2121 32.9531 19.2121 31.68C19.2121 30.407 19.7182 29.1861 20.6189 28.2859C21.5197 27.3857 22.7413 26.88 24.0152 26.88H27.8576C28.6219 26.88 29.3549 26.5766 29.8954 26.0365C30.4358 25.4964 30.7394 24.7638 30.7394 24C30.7394 23.2362 30.4358 22.5037 29.8954 21.9636C29.3549 21.4234 28.6219 21.12 27.8576 21.12H24.0152C21.4189 21.1217 18.9141 22.0786 16.9787 23.808C16.7967 23.9619 16.5685 24.0506 16.3303 24.06C16.1369 24.0565 15.949 23.9954 15.7905 23.8846C15.6321 23.7738 15.5103 23.6183 15.4407 23.438C15.3711 23.2576 15.3568 23.0607 15.3998 22.8722C15.4428 22.6838 15.541 22.5124 15.6819 22.38C17.9732 20.3309 20.9404 19.1986 24.0152 19.2H27.8576C29.1315 19.2 30.3531 19.7057 31.2539 20.6059C32.1546 21.5061 32.6607 22.727 32.6607 24C32.6607 25.2731 32.1546 26.494 31.2539 27.3941C30.3531 28.2943 29.1315 28.8 27.8576 28.8H24.0152C23.2509 28.8 22.5179 29.1034 21.9774 29.6436C21.437 30.1837 21.1333 30.9162 21.1333 31.68C21.1333 32.4438 21.437 33.1764 21.9774 33.7165C22.5179 34.2566 23.2509 34.56 24.0152 34.56H27.8576C29.2452 34.56 30.6193 34.2869 31.9013 33.7562C33.1833 33.2255 34.3482 32.4477 35.3294 31.4671C36.3106 30.4865 37.0889 29.3224 37.62 28.0412C38.151 26.76 38.4243 25.3868 38.4243 24C38.4243 22.6133 38.151 21.2401 37.62 19.9589C37.0889 18.6777 36.3106 17.5136 35.3294 16.533C34.3482 15.5524 33.1833 14.7745 31.9013 14.2439C30.6193 13.7132 29.2452 13.44 27.8576 13.44H24.0152C23.6363 13.4384 23.2608 13.5118 22.9105 13.656C22.5601 13.8002 22.2418 14.0123 21.9739 14.28C21.7059 14.5478 21.4937 14.8659 21.3495 15.216C21.2052 15.5661 21.1318 15.9414 21.1333 16.32V16.8C21.1333 17.0546 21.0321 17.2988 20.852 17.4788C20.6718 17.6589 20.4275 17.76 20.1727 17.76C19.918 17.76 19.6736 17.6589 19.4935 17.4788C19.3133 17.2988 19.2121 17.0546 19.2121 16.8V16.32C19.2121 15.047 19.7182 13.8261 20.6189 12.9259C21.5197 12.0257 22.7413 11.52 24.0152 11.52H27.8576C31.1677 11.5264 34.3403 12.8433 36.6809 15.1823C39.0215 17.5214 40.3392 20.6921 40.3455 24ZM24.0152 24.96C24.2699 24.96 24.5143 24.8589 24.6944 24.6788C24.8746 24.4988 24.9758 24.2546 24.9758 24C24.9758 23.7454 24.8746 23.5012 24.6944 23.3212C24.5143 23.1412 24.2699 23.04 24.0152 23.04C21.7222 23.04 19.5232 23.9503 17.9019 25.5706C16.2805 27.1909 15.3697 29.3885 15.3697 31.68C15.3697 32.4418 15.0677 33.1725 14.5299 33.7123C13.992 34.252 13.2621 34.5568 12.4999 34.56C12.2451 34.56 12.0008 34.6612 11.8206 34.8412C11.6405 35.0212 11.5393 35.2654 11.5393 35.52C11.5393 35.7746 11.6405 36.0188 11.8206 36.1988C12.0008 36.3789 12.2451 36.48 12.4999 36.48C13.7737 36.48 14.9954 35.9743 15.8961 35.0741C16.7969 34.174 17.3029 32.9531 17.3029 31.68C17.3029 29.8998 18.0097 28.1924 19.2682 26.9325C20.5266 25.6726 22.2339 24.9632 24.0152 24.96ZM9.60603 31.68V16.32C9.60603 15.5562 9.90965 14.8237 10.4501 14.2836C10.9905 13.7434 11.7236 13.44 12.4879 13.44C13.2522 13.44 13.9852 13.7434 14.5256 14.2836C15.0661 14.8237 15.3697 15.5562 15.3697 16.32V18.372C15.3697 18.6266 15.4709 18.8708 15.651 19.0508C15.8312 19.2309 16.0755 19.332 16.3303 19.332C16.5851 19.332 16.8294 19.2309 17.0096 19.0508C17.1897 18.8708 17.2909 18.6266 17.2909 18.372V16.32C17.2909 15.047 16.7849 13.8261 15.8841 12.9259C14.9834 12.0257 13.7617 11.52 12.4879 11.52C11.214 11.52 9.99234 12.0257 9.09159 12.9259C8.19085 13.8261 7.68481 15.047 7.68481 16.32V31.68C7.69807 32.8302 8.12418 33.9374 8.88558 34.8C8.97654 34.9051 9.08899 34.9894 9.21535 35.0474C9.3417 35.1054 9.47901 35.1356 9.61804 35.136C9.83891 35.1232 10.0496 35.0389 10.2184 34.896C10.4115 34.7327 10.5323 34.4998 10.5546 34.248C10.5367 34.0075 10.4396 33.7796 10.2785 33.6C9.82412 33.0653 9.5845 32.3812 9.60603 31.68ZM36.2269 21.816C35.7418 19.9601 34.6524 18.3184 33.1306 17.1495C31.6087 15.9806 29.7409 15.351 27.8216 15.36H24.0152C23.7604 15.36 23.5161 15.4612 23.3359 15.6412C23.1558 15.8212 23.0546 16.0654 23.0546 16.32C23.0546 16.5746 23.1558 16.8188 23.3359 16.9988C23.5161 17.1789 23.7604 17.28 24.0152 17.28H27.8576C29.3463 17.2799 30.793 17.7735 31.9708 18.6834C33.1486 19.5934 33.9909 20.8682 34.3657 22.308C34.4192 22.5152 34.5405 22.6985 34.7102 22.829C34.8798 22.9594 35.0883 23.0295 35.3023 23.028C35.3779 23.0395 35.4549 23.0395 35.5305 23.028C35.6538 22.9983 35.7696 22.9435 35.8709 22.8672C35.9721 22.7908 36.0565 22.6944 36.1188 22.584C36.1886 22.4703 36.2343 22.3434 36.2528 22.2113C36.2714 22.0791 36.2626 21.9446 36.2269 21.816ZM35.5065 25.26C35.386 25.2177 35.2581 25.2007 35.1308 25.2103C35.0035 25.2198 34.8795 25.2555 34.7667 25.3153C34.6539 25.375 34.5547 25.4575 34.4754 25.5574C34.396 25.6574 34.3383 25.7727 34.3057 25.896C33.8863 27.2738 33.0466 28.4863 31.9042 29.364C30.7385 30.2432 29.318 30.7192 27.8576 30.72H24.0152C23.7604 30.72 23.5161 30.8212 23.3359 31.0012C23.1558 31.1812 23.0546 31.4254 23.0546 31.68C23.0546 31.9346 23.1558 32.1788 23.3359 32.3588C23.5161 32.5389 23.7604 32.64 24.0152 32.64H27.8576C29.7443 32.6472 31.5805 32.0312 33.0809 30.888C34.5549 29.7547 35.6311 28.1833 36.1549 26.4C36.2146 26.1631 36.1805 25.9123 36.0597 25.6999C35.9389 25.4875 35.7407 25.3299 35.5065 25.26ZM12.4879 32.64C12.7426 32.64 12.987 32.5389 13.1671 32.3588C13.3473 32.1788 13.4485 31.9346 13.4485 31.68V20.16C13.4485 19.9054 13.3473 19.6612 13.1671 19.4812C12.987 19.3012 12.7426 19.2 12.4879 19.2C12.2331 19.2 11.9888 19.3012 11.8086 19.4812C11.6285 19.6612 11.5273 19.9054 11.5273 20.16V31.68C11.5273 31.9346 11.6285 32.1788 11.8086 32.3588C11.9888 32.5389 12.2331 32.64 12.4879 32.64ZM11.8154 15.6C11.7233 15.6884 11.6502 15.7946 11.6006 15.9123C11.551 16.0299 11.5261 16.1564 11.5273 16.284C11.5333 16.5367 11.6365 16.7774 11.8154 16.9561C11.9942 17.1348 12.235 17.2379 12.4879 17.244C12.6156 17.2452 12.7422 17.2202 12.8599 17.1707C12.9776 17.1212 13.0839 17.0481 13.1723 16.956C13.2614 16.8685 13.3318 16.7638 13.3792 16.6483C13.4267 16.5328 13.4503 16.4089 13.4485 16.284C13.4501 16.1575 13.4263 16.0319 13.3786 15.9147C13.3309 15.7975 13.2602 15.6911 13.1707 15.6016C13.0812 15.5121 12.9746 15.4415 12.8574 15.3938C12.7401 15.3461 12.6145 15.3224 12.4879 15.324C12.3629 15.3222 12.2389 15.3458 12.1234 15.3932C12.0078 15.4406 11.903 15.511 11.8154 15.6ZM28.53 24.648C28.6208 24.5587 28.6929 24.4522 28.7421 24.3348C28.7913 24.2174 28.8166 24.0913 28.8166 23.964C28.8166 23.8367 28.7913 23.7107 28.7421 23.5933C28.6929 23.4758 28.6208 23.3693 28.53 23.28C28.3505 23.1041 28.1091 23.0056 27.8576 23.0056C27.6062 23.0056 27.3647 23.1041 27.1852 23.28C27.0944 23.3693 27.0223 23.4758 26.9731 23.5933C26.9239 23.7107 26.8986 23.8367 26.8986 23.964C26.8986 24.0913 26.9239 24.2174 26.9731 24.3348C27.0223 24.4522 27.0944 24.5587 27.1852 24.648C27.3647 24.8239 27.6062 24.9224 27.8576 24.9224C28.1091 24.9224 28.3505 24.8239 28.53 24.648Z" fill="white"/>
</g>
</svg>
