<svg width="132" height="80" viewBox="0 0 132 80" fill="none" xmlns="http://www.w3.org/2000/svg">
<path fill-rule="evenodd" clip-rule="evenodd" d="M39.9493 18.008V18H43.7854H54.8468C58.7724 18 62.4599 19.0386 65.649 20.8554C68.8382 19.0386 72.5258 18.0001 76.4513 18.0001L88.2146 18L88.2533 18.0001H90.5885V18.0049L102.305 18.0293L110.108 25.8315L117.91 18.0293L132 18L131.971 32.0903L124.169 39.8925L131.971 47.695L132 61.7854L117.91 61.7556L110.108 53.9535L102.305 61.7556L90.5656 61.7804V61.7854H88.2146H76.4513C72.5257 61.7854 68.8382 60.7467 65.6489 58.9299C62.4598 60.7467 58.7723 61.7853 54.8468 61.7853H43.7854V61.7854L43.7469 61.7853H39.922L39.922 61.7773L29.695 61.756L21.8925 53.9535L14.0899 61.756L0 61.7854L0.0289445 47.695L7.83149 39.8925L0.0289445 32.0903L0 18L14.0899 18.0293L21.8925 25.8315L29.695 18.0293L39.9493 18.008ZM41.8544 45.7934L35.9535 39.8925L41.8545 33.9917L47.7553 39.8926L41.8544 45.7934ZM69.7105 55.9519C71.7849 56.8259 74.0627 57.3093 76.4513 57.3093H88.2241L88.2421 48.7679H74.8583C73.6408 51.5027 71.8787 53.9435 69.7105 55.9519ZM76.2946 44.2916L91.6478 44.2914L96.0465 39.8925L91.9674 35.8134H76.3576C76.6077 37.1354 76.7386 38.499 76.7386 39.8926C76.7386 41.3989 76.5857 42.8701 76.2946 44.2916ZM74.9977 31.3373H88.2428L88.2241 22.4762H76.4513C74.0628 22.4762 71.785 22.9595 69.7106 23.8335C71.9629 25.9198 73.7771 28.4729 74.9977 31.3373ZM39.301 22.4844L31.5523 22.5005L21.8925 32.1607L12.2327 22.5005L4.48439 22.4844L4.50047 30.2327L14.1603 39.8925L4.50047 49.5523L4.48439 57.301L12.2327 57.2845L21.8925 47.6247L31.5523 57.2845L39.301 57.301L39.2845 49.5527L29.6247 39.8925L39.2845 30.2327L39.301 22.4844ZM127.515 22.4844L119.767 22.5005L110.108 32.1607L100.448 22.5005L92.699 22.4844L92.7155 30.2327L102.376 39.8925L92.7155 49.5527L92.699 57.301L100.448 57.2845L110.108 47.6247L119.767 57.2845L127.515 57.301L127.5 49.5527L117.839 39.8925L127.5 30.2327L127.515 22.4844ZM54.8468 57.3092H44.4072L44.4233 49.5549L54.0853 39.8926L44.4253 30.2328V22.4761H54.8468C64.4498 22.4761 72.2626 30.2891 72.2626 39.8926C72.2626 49.4962 64.4498 57.3092 54.8468 57.3092Z" fill="#1CFEBA"/>
</svg>
