<svg xmlns="http://www.w3.org/2000/svg" viewBox="0 0 1000 388.6">
    <path d="M600.11 363.35h-9.6v-4.91H615v4.91h-9.6v25.22h-5.29v-25.22Zm84.94-4.91h13.43c3.79 0 6.76 1.12 8.69 3.01 1.59 1.64 2.5 3.87 2.5 6.5v.09c0 4.95-2.97 7.92-7.14 9.12l8.13 11.4h-6.28l-7.4-10.5h-6.63v10.5h-5.29v-30.12Zm13.04 14.93c3.79 0 6.2-1.98 6.2-5.04v-.09c0-3.23-2.32-4.99-6.24-4.99h-7.7v10.11h7.75Zm93.29-15.15h4.91l13.25 30.34h-5.59l-3.06-7.27h-14.24l-3.1 7.27h-5.42l13.25-30.34Zm7.57 18.38-5.21-12.05-5.16 12.05h10.37Zm80.29-18.16h11.23c9.47 0 16.01 6.5 16.01 14.98v.09c0 8.48-6.54 15.06-16.01 15.06h-11.23v-30.12Zm5.29 4.82v20.48h5.94c6.33 0 10.46-4.26 10.46-10.16v-.09c0-5.9-4.13-10.24-10.46-10.24h-5.94Zm92.9-4.82h22.33v4.73h-17.04V371h15.1v4.78h-15.1v8.05h17.26v4.73h-22.55v-30.12Z" style="opacity:.25;fill:#061a8e"/>
    <path d="M0 266.18v-.38c0-37.36 27.92-68.3 66.79-68.3 23.96 0 38.3 8.49 51.51 20.94l-10.19 10.94c-11.13-10.57-23.58-18.11-41.51-18.11-29.24 0-51.13 23.77-51.13 54.15v.38c0 30.57 22.07 54.53 51.13 54.53 18.11 0 30-6.98 42.64-19.06l9.81 9.62c-13.77 13.96-28.87 23.21-52.83 23.21-38.11 0-66.22-30-66.22-67.92Zm171.47-66.41h14.9v58.68h76.22v-58.68h14.91v132.07h-14.91v-59.43h-76.22v59.43h-14.9V199.77Zm167.18 0h14.9v132.07h-14.9V199.77Zm250.3 0h88.76v13.58h-73.85v45.09h65.36v13.58h-65.36v46.23h74.79v13.58h-89.7V199.76Zm140.59 0h54.11c16.23 0 29.24 4.91 37.55 13.21 6.41 6.41 10.19 15.66 10.19 26.04v.38c0 21.89-15.09 34.72-35.85 38.49l40.56 53.96h-18.3l-38.3-51.32h-35.05v51.32h-14.9V199.78Zm52.78 67.36c19.81 0 33.96-10.19 33.96-27.17v-.38c0-16.23-12.45-26.04-33.77-26.04h-38.07v53.58h37.88Zm143.52-68.3h13.96l60.19 133.01h-16.04l-15.47-34.9H896.6l-15.66 34.9h-15.28l60.19-133.01Zm36.79 84.71-30-67.36-30.19 67.36h60.19Zm-499.96-89.25c0 65.92 3.36 130.78 9.86 194.28 6.5-63.5 9.86-128.36 9.86-194.28S479.03 63.51 472.53.01c-6.5 63.5-9.86 128.36-9.86 194.28Zm-38.39 27.79c-.5-6.69-1.09-13.39-1.78-20.1-3.38-32.5-8.95-64.25-16.54-95.11-1.08 31.76 0 63.98 3.39 96.48 1.34 12.88 3.03 25.64 5.05 38.28a700.297 700.297 0 0 0-20.99-59.37c3.49 31.59 9.18 63.31 17.19 95 8.01 31.68 18.07 62.3 30.01 91.76a703.288 703.288 0 0 0-12.2-73.9c-1.38-6.27-2.12-12.65-2.11-19.07v-1.65c-.02-9.6.99-19.17 2.72-28.62 5.56-30.45 9.83-60.7 12.85-90.65-6.48 21.88-12.31 44.24-17.56 66.96Zm106.46 19.54c2.02-12.64 3.71-25.4 5.05-38.28 3.38-32.51 4.47-64.72 3.39-96.48a702.238 702.238 0 0 0-16.54 95.11c-.7 6.72-1.28 13.42-1.78 20.1-5.26-22.72-11.08-45.08-17.56-66.96 3.02 29.95 7.29 60.2 12.85 90.65 1.72 9.45 2.73 19.02 2.72 28.62v1.65c.01 6.42-.73 12.8-2.11 19.07a700.693 700.693 0 0 0-12.2 73.9c11.94-29.45 22-60.07 30.01-91.76 8.01-31.68 13.7-63.41 17.19-95-7.82 19.3-14.83 39.1-20.99 59.37Z" style="fill:#061a8e"/>
</svg>