<svg width="115" height="15" viewBox="0 0 115 15" fill="none" xmlns="http://www.w3.org/2000/svg">
<path d="M1.05682 12V3.27273H4.00568C4.69034 3.27273 5.25 3.39631 5.68466 3.64347C6.12216 3.88778 6.44602 4.21875 6.65625 4.63636C6.86648 5.05398 6.97159 5.51989 6.97159 6.03409C6.97159 6.5483 6.86648 7.01562 6.65625 7.43608C6.44886 7.85653 6.12784 8.19176 5.69318 8.44176C5.25852 8.68892 4.7017 8.8125 4.02273 8.8125H1.90909V7.875H3.98864C4.45739 7.875 4.83381 7.79403 5.1179 7.6321C5.40199 7.47017 5.60795 7.25142 5.7358 6.97585C5.86648 6.69744 5.93182 6.38352 5.93182 6.03409C5.93182 5.68466 5.86648 5.37216 5.7358 5.09659C5.60795 4.82102 5.40057 4.60511 5.11364 4.44886C4.8267 4.28977 4.44602 4.21023 3.97159 4.21023H2.11364V12H1.05682ZM11.1264 12.1364C10.5355 12.1364 10.017 11.9957 9.57102 11.7145C9.12784 11.4332 8.78125 11.0398 8.53125 10.5341C8.28409 10.0284 8.16051 9.4375 8.16051 8.76136C8.16051 8.07955 8.28409 7.48437 8.53125 6.97585C8.78125 6.46733 9.12784 6.07244 9.57102 5.79119C10.017 5.50994 10.5355 5.36932 11.1264 5.36932C11.7173 5.36932 12.2344 5.50994 12.6776 5.79119C13.1236 6.07244 13.4702 6.46733 13.7173 6.97585C13.9673 7.48437 14.0923 8.07955 14.0923 8.76136C14.0923 9.4375 13.9673 10.0284 13.7173 10.5341C13.4702 11.0398 13.1236 11.4332 12.6776 11.7145C12.2344 11.9957 11.7173 12.1364 11.1264 12.1364ZM11.1264 11.233C11.5753 11.233 11.9446 11.1179 12.2344 10.8878C12.5241 10.6577 12.7386 10.3551 12.8778 9.98011C13.017 9.60511 13.0866 9.19886 13.0866 8.76136C13.0866 8.32386 13.017 7.91619 12.8778 7.53835C12.7386 7.16051 12.5241 6.85511 12.2344 6.62216C11.9446 6.3892 11.5753 6.27273 11.1264 6.27273C10.6776 6.27273 10.3082 6.3892 10.0185 6.62216C9.72869 6.85511 9.5142 7.16051 9.375 7.53835C9.2358 7.91619 9.16619 8.32386 9.16619 8.76136C9.16619 9.19886 9.2358 9.60511 9.375 9.98011C9.5142 10.3551 9.72869 10.6577 10.0185 10.8878C10.3082 11.1179 10.6776 11.233 11.1264 11.233ZM16.8878 12L14.8935 5.45455H15.9503L17.3651 10.4659H17.4332L18.831 5.45455H19.9048L21.2855 10.4489H21.3537L22.7685 5.45455H23.8253L21.831 12H20.8423L19.4105 6.97159H19.3082L17.8764 12H16.8878ZM27.6765 12.1364C27.0458 12.1364 26.5018 11.9972 26.0444 11.7188C25.5898 11.4375 25.239 11.0455 24.9918 10.5426C24.7475 10.0369 24.6254 9.44886 24.6254 8.77841C24.6254 8.10795 24.7475 7.51705 24.9918 7.00568C25.239 6.49148 25.5827 6.09091 26.0231 5.80398C26.4663 5.5142 26.9833 5.36932 27.5742 5.36932C27.9151 5.36932 28.2518 5.42614 28.5842 5.53977C28.9165 5.65341 29.2191 5.83807 29.4918 6.09375C29.7646 6.34659 29.9819 6.68182 30.1438 7.09943C30.3058 7.51705 30.3867 8.03125 30.3867 8.64205V9.06818H25.3413V8.19886H29.364C29.364 7.82955 29.2901 7.5 29.1424 7.21023C28.9975 6.92045 28.7901 6.69176 28.5202 6.52415C28.2532 6.35653 27.9379 6.27273 27.5742 6.27273C27.1737 6.27273 26.8271 6.37216 26.5344 6.57102C26.2447 6.76705 26.0217 7.02273 25.8654 7.33807C25.7092 7.65341 25.631 7.99148 25.631 8.35227V8.93182C25.631 9.42614 25.7163 9.84517 25.8867 10.1889C26.06 10.5298 26.3001 10.7898 26.6069 10.9688C26.9137 11.1449 27.2702 11.233 27.6765 11.233C27.9407 11.233 28.1793 11.196 28.3924 11.1222C28.6083 11.0455 28.7944 10.9318 28.9506 10.7812C29.1069 10.6278 29.2276 10.4375 29.3129 10.2102L30.2844 10.483C30.1822 10.8125 30.0103 11.1023 29.7688 11.3523C29.5273 11.5994 29.229 11.7926 28.8739 11.9318C28.5188 12.0682 28.1197 12.1364 27.6765 12.1364ZM31.9165 12V5.45455H32.8881V6.44318H32.9563C33.0756 6.11932 33.2915 5.85653 33.604 5.65483C33.9165 5.45312 34.2688 5.35227 34.6609 5.35227C34.7347 5.35227 34.8271 5.35369 34.9379 5.35653C35.0487 5.35937 35.1325 5.36364 35.1893 5.36932V6.39205C35.1552 6.38352 35.0771 6.37074 34.9549 6.35369C34.8356 6.33381 34.7092 6.32386 34.5756 6.32386C34.2575 6.32386 33.9734 6.39062 33.7234 6.52415C33.4762 6.65483 33.2802 6.83665 33.1353 7.0696C32.9933 7.29972 32.9222 7.5625 32.9222 7.85795V12H31.9165ZM38.9265 12.1364C38.2958 12.1364 37.7518 11.9972 37.2944 11.7188C36.8398 11.4375 36.489 11.0455 36.2418 10.5426C35.9975 10.0369 35.8754 9.44886 35.8754 8.77841C35.8754 8.10795 35.9975 7.51705 36.2418 7.00568C36.489 6.49148 36.8327 6.09091 37.2731 5.80398C37.7163 5.5142 38.2333 5.36932 38.8242 5.36932C39.1651 5.36932 39.5018 5.42614 39.8342 5.53977C40.1665 5.65341 40.4691 5.83807 40.7418 6.09375C41.0146 6.34659 41.2319 6.68182 41.3938 7.09943C41.5558 7.51705 41.6367 8.03125 41.6367 8.64205V9.06818H36.5913V8.19886H40.614C40.614 7.82955 40.5401 7.5 40.3924 7.21023C40.2475 6.92045 40.0401 6.69176 39.7702 6.52415C39.5032 6.35653 39.1879 6.27273 38.8242 6.27273C38.4237 6.27273 38.0771 6.37216 37.7844 6.57102C37.4947 6.76705 37.2717 7.02273 37.1154 7.33807C36.9592 7.65341 36.881 7.99148 36.881 8.35227V8.93182C36.881 9.42614 36.9663 9.84517 37.1367 10.1889C37.31 10.5298 37.5501 10.7898 37.8569 10.9688C38.1637 11.1449 38.5202 11.233 38.9265 11.233C39.1907 11.233 39.4293 11.196 39.6424 11.1222C39.8583 11.0455 40.0444 10.9318 40.2006 10.7812C40.3569 10.6278 40.4776 10.4375 40.5629 10.2102L41.5344 10.483C41.4322 10.8125 41.2603 11.1023 41.0188 11.3523C40.7773 11.5994 40.479 11.7926 40.1239 11.9318C39.7688 12.0682 39.3697 12.1364 38.9265 12.1364ZM45.6381 12.1364C45.0927 12.1364 44.6112 11.9986 44.1935 11.723C43.7759 11.4446 43.4492 11.0526 43.2134 10.5469C42.9776 10.0384 42.8597 9.4375 42.8597 8.74432C42.8597 8.05682 42.9776 7.46023 43.2134 6.95455C43.4492 6.44886 43.7773 6.05824 44.1978 5.78267C44.6183 5.5071 45.104 5.36932 45.6552 5.36932C46.0813 5.36932 46.418 5.44034 46.6651 5.58239C46.9151 5.72159 47.1055 5.88068 47.2362 6.05966C47.3697 6.2358 47.4734 6.38068 47.5472 6.49432H47.6325V3.27273H48.6381V12H47.6665V10.9943H47.5472C47.4734 11.1136 47.3683 11.2642 47.2319 11.446C47.0955 11.625 46.9009 11.7855 46.6481 11.9276C46.3952 12.0668 46.0586 12.1364 45.6381 12.1364ZM45.7745 11.233C46.1779 11.233 46.5188 11.1278 46.7972 10.9176C47.0756 10.7045 47.2873 10.4105 47.4322 10.0355C47.5771 9.65767 47.6495 9.22159 47.6495 8.72727C47.6495 8.23864 47.5785 7.81108 47.4364 7.4446C47.2944 7.07528 47.0842 6.78835 46.8058 6.58381C46.5273 6.37642 46.1836 6.27273 45.7745 6.27273C45.3484 6.27273 44.9933 6.3821 44.7092 6.60085C44.4279 6.81676 44.2163 7.1108 44.0742 7.48295C43.935 7.85227 43.8654 8.26705 43.8654 8.72727C43.8654 9.19318 43.9364 9.61648 44.0785 9.99716C44.2234 10.375 44.4364 10.6761 44.7177 10.9006C45.0018 11.1222 45.354 11.233 45.7745 11.233ZM54.131 12V3.27273H57.1822C57.7901 3.27273 58.2915 3.37784 58.6864 3.58807C59.0813 3.79545 59.3754 4.07528 59.5685 4.42756C59.7617 4.77699 59.8583 5.16477 59.8583 5.59091C59.8583 5.96591 59.7915 6.27557 59.658 6.51989C59.5273 6.7642 59.354 6.95739 59.1381 7.09943C58.9251 7.24148 58.6935 7.34659 58.4435 7.41477V7.5C58.7106 7.51705 58.979 7.6108 59.2489 7.78125C59.5188 7.9517 59.7447 8.19602 59.9265 8.5142C60.1083 8.83239 60.1992 9.22159 60.1992 9.68182C60.1992 10.1193 60.0998 10.5128 59.9009 10.8622C59.7021 11.2116 59.3881 11.4886 58.9592 11.6932C58.5302 11.8977 57.9719 12 57.2844 12H54.131ZM55.1879 11.0625H57.2844C57.9748 11.0625 58.4648 10.929 58.7546 10.6619C59.0472 10.392 59.1935 10.0653 59.1935 9.68182C59.1935 9.38636 59.1183 9.11364 58.9677 8.86364C58.8171 8.6108 58.6026 8.40909 58.3242 8.25852C58.0458 8.10511 57.7163 8.02841 57.3356 8.02841H55.1879V11.0625ZM55.1879 7.10795H57.1481C57.4663 7.10795 57.7532 7.04545 58.0089 6.92045C58.2674 6.79545 58.4719 6.61932 58.6225 6.39205C58.7759 6.16477 58.8526 5.89773 58.8526 5.59091C58.8526 5.20739 58.7191 4.8821 58.4521 4.61506C58.185 4.34517 57.7617 4.21023 57.1822 4.21023H55.1879V7.10795ZM62.4471 14.4545C62.2766 14.4545 62.1246 14.4403 61.9911 14.4119C61.8576 14.3864 61.7653 14.3608 61.7141 14.3352L61.9698 13.4489C62.2141 13.5114 62.43 13.5341 62.6175 13.517C62.805 13.5 62.9712 13.4162 63.1161 13.2656C63.2638 13.1179 63.3988 12.8778 63.521 12.5455L63.7085 12.0341L61.288 5.45455H62.3789L64.1857 10.6705H64.2539L66.0607 5.45455H67.1516L64.3732 12.9545C64.2482 13.2926 64.0934 13.5724 63.9087 13.794C63.7241 14.0185 63.5096 14.1847 63.2653 14.2926C63.0238 14.4006 62.7511 14.4545 62.4471 14.4545Z" fill="#777F89"/>
<path d="M75.177 4.72095L78.4834 3.61713L78.2609 4.55752C78.5475 4.62541 78.8593 4.71593 79.2038 4.83913C79.9682 5.11195 80.6609 5.42876 81.2832 5.78832L82.6586 2.89047C82.0036 2.47559 81.2316 2.14243 80.3415 1.89225C79.4514 1.64081 78.5601 1.51509 77.665 1.51509C76.6831 1.51509 75.8206 1.66847 75.0776 1.97397C74.3346 2.27947 73.7626 2.71949 73.359 3.29152C72.9555 3.86606 72.7531 4.53489 72.7531 5.29801C72.7531 6.08376 72.9492 6.71111 73.3427 7.1813C73.7349 7.65024 74.2014 7.99723 74.742 8.22101C75.2826 8.44479 75.9564 8.65977 76.7635 8.86721C76.981 8.92127 77.1734 8.97281 77.3532 9.02562L77.5669 8.12169L80.1354 10.1445L76.8302 11.2484L77.0074 10.4965C76.5825 10.4111 76.1136 10.2702 75.5855 10.0553C74.713 9.69948 73.9864 9.27077 73.4081 8.76915L72 11.6343C72.7531 12.2126 73.6457 12.6677 74.6778 13.0009C75.7087 13.3341 76.7321 13.5 77.7467 13.5C78.6418 13.5 79.4552 13.363 80.1869 13.0902C80.9186 12.8173 81.4994 12.3999 81.9306 11.838C82.3619 11.276 82.5781 10.5808 82.5781 9.75102C82.5781 8.94264 82.3757 8.29141 81.9721 7.79482C81.5686 7.29822 81.0959 6.93489 80.5553 6.70608C80.0147 6.47727 79.3358 6.2472 78.5173 6.01839C78.3099 5.96307 78.1276 5.91027 77.9554 5.85872L77.7454 6.74379L75.177 4.72095Z" fill="#777F89"/>
<path d="M87.324 5.18359C84.7707 5.18359 83.0181 7.03293 83.0181 9.32607C83.0181 11.9297 84.9492 13.4849 87.4221 13.4849C88.6001 13.4849 90.0094 13.1744 90.7952 12.5018L89.5832 10.6851C89.191 11.0283 88.2078 11.242 87.7653 11.242C86.7998 11.242 86.2265 10.7505 86.0631 10.2438H91.4326V9.63786C91.4338 6.85315 89.6486 5.18359 87.324 5.18359ZM86.0304 8.37563C86.1284 8.01607 86.4226 7.42644 87.3228 7.42644C88.2732 7.42644 88.5511 8.03241 88.6328 8.37563H86.0304Z" fill="#777F89"/>
<path d="M95.3953 2.36746H92.4484V13.2875H95.3953V2.36746Z" fill="#777F89"/>
<path d="M99.979 2.36746H97.0322V13.2875H99.979V2.36746Z" fill="#777F89"/>
<path d="M104.564 5.37973H101.617V13.2875H104.564V5.37973Z" fill="#777F89"/>
<path d="M103.091 1.5C102.174 1.5 101.436 2.23672 101.436 3.15322C101.436 4.06972 102.173 4.8077 103.091 4.8077C104.007 4.8077 104.744 4.07098 104.744 3.15322C104.744 2.23672 104.007 1.5 103.091 1.5Z" fill="#777F89"/>
<path d="M111.505 9.22677L113.928 5.37973H110.703L109.638 7.23033L108.575 5.37973H105.349L107.772 9.22677L105.185 13.2875H108.394L109.654 11.1918L110.883 13.2875H114.107L111.505 9.22677Z" fill="#777F89"/>
</svg>
