<svg width="113" height="32" viewBox="0 0 113 32" fill="none" xmlns="http://www.w3.org/2000/svg">
<path d="M8.47087 8.59301L17.287 5.64979L16.6937 8.15723C17.458 8.33825 18.2893 8.5796 19.2078 8.90812C21.2459 9.63554 23.0929 10.4803 24.7522 11.439L28.4195 3.71222C26.673 2.606 24.6148 1.71767 22.2415 1.05058C19.8682 0.380141 17.4915 0.0449219 15.1048 0.0449219C12.4867 0.0449219 10.1872 0.453889 8.20605 1.26847C6.22493 2.08305 4.69971 3.25632 3.62367 4.78157C2.54763 6.31352 2.00793 8.09689 2.00793 10.1317C2.00793 12.2268 2.53087 13.8995 3.58009 15.1533C4.62596 16.4036 5.8696 17.3288 7.31103 17.9255C8.75245 18.5222 10.5492 19.0954 12.7013 19.6485C13.2812 19.7927 13.7941 19.9301 14.2734 20.0709L14.8433 17.6607L21.6917 23.0544L12.8789 25.9976L13.3516 23.993C12.2186 23.765 10.9682 23.3896 9.56032 22.8164C7.23393 21.8677 5.29639 20.7246 3.7544 19.3871L0 27.0267C2.00793 28.5687 4.38796 29.7822 7.14007 30.6705C9.88882 31.5589 12.6175 32.0014 15.3226 32.0014C17.7094 32.0014 19.8782 31.636 21.8292 30.9086C23.7801 30.1811 25.3288 29.0682 26.4786 27.5698C27.6284 26.0713 28.2049 24.2176 28.2049 22.0051C28.2049 19.8497 27.6652 18.1132 26.5892 16.7891C25.5132 15.465 24.2528 14.4962 22.8113 13.8861C21.3699 13.276 19.5598 12.6626 17.3775 12.0525C16.8244 11.905 16.3384 11.7642 15.8791 11.6267L15.3193 13.9867L8.47087 8.59301Z" fill="#121417"/>
<path d="M40.8602 9.81958C34.052 9.81958 29.3792 14.7507 29.3792 20.8651C29.3792 27.8074 34.528 31.9541 41.1217 31.9541C44.2627 31.9541 48.0204 31.1261 50.1155 29.3327L46.884 24.4888C45.8382 25.4039 43.2168 25.9738 42.0368 25.9738C39.4624 25.9738 37.9338 24.6631 37.498 23.3122H51.815V21.6964C51.8184 14.2713 47.0584 9.81958 40.8602 9.81958ZM37.4109 18.3308C37.6724 17.3721 38.4568 15.7999 40.8569 15.7999C43.3911 15.7999 44.1319 17.4156 44.3498 18.3308H37.4109Z" fill="#121417"/>
<path d="M62.3784 2.31372H54.521V31.4309H62.3784V2.31372Z" fill="#121417"/>
<path d="M74.6025 2.31372H66.7451V31.4309H74.6025V2.31372Z" fill="#121417"/>
<path d="M86.8267 10.3508H78.9692V31.4361H86.8267V10.3508Z" fill="#121417"/>
<path d="M82.8995 0.00146484C80.4557 0.00146484 78.488 1.96585 78.488 4.4096C78.488 6.85335 80.4524 8.82108 82.8995 8.82108C85.3432 8.82108 87.3075 6.8567 87.3075 4.4096C87.3075 1.96585 85.3432 0.00146484 82.8995 0.00146484Z" fill="#121417"/>
<path d="M105.339 20.6085L111.798 10.3508H103.2L100.361 15.2853L97.5247 10.3508H88.9231L95.386 20.6085L88.4873 31.4361H97.042L100.404 25.848L103.679 31.4361H112.277L105.339 20.6085Z" fill="#121417"/>
</svg>
